<svg xmlns="http://www.w3.org/2000/svg" width="164.558" height="24.335" viewBox="0 0 164.558 24.335"><defs><style>.a{fill:#ff9100;}.b{fill:#fff;}</style></defs><g transform="translate(0 1)"><path class="a" d="M5.677,0S0,0,0,5.677V18.67s0,5.665,5.677,5.665H18.67s5.665,0,5.665-5.665V5.677S24.335,0,18.67,0Z" transform="translate(0 -1)"/><path class="b" d="M25.03,14.156a1.814,1.814,0,0,0-2.662-1.639L8.44,20.821a1.81,1.81,0,0,0,.5,3.308l12.145,3.213a1.433,1.433,0,0,0,.186.046h0a1.757,1.757,0,0,0,.346.042,1.818,1.818,0,0,0,1.829-1.551l1.574-11.521v-.2" transform="translate(-4.687 -8.627)"/><path class="b" d="M81.479,19.406a3.871,3.871,0,0,1,.582-1.943,3.958,3.958,0,0,1,1.312-1.236,5.7,5.7,0,0,1,1.787-.669,10.4,10.4,0,0,1,2-.2A13.886,13.886,0,0,1,89,15.489a5.646,5.646,0,0,1,1.711.494,3.38,3.38,0,0,1,1.262,1.042,2.9,2.9,0,0,1,.506,1.772v6.289a12.21,12.21,0,0,0,.1,1.567,2.818,2.818,0,0,0,.327,1.122H89.536a4.407,4.407,0,0,1-.152-.574,4.339,4.339,0,0,1-.084-.6,4.319,4.319,0,0,1-1.871,1.141,7.54,7.54,0,0,1-2.2.327,5.924,5.924,0,0,1-1.612-.213,3.681,3.681,0,0,1-1.308-.654,3.042,3.042,0,0,1-.878-1.141,3.8,3.8,0,0,1-.316-1.612,3.513,3.513,0,0,1,.38-1.7,3,3,0,0,1,.935-1.065,4.152,4.152,0,0,1,1.308-.593,13.365,13.365,0,0,1,1.483-.316c.5-.08.989-.141,1.472-.19a8.62,8.62,0,0,0,1.289-.209,2.205,2.205,0,0,0,.886-.407.9.9,0,0,0,.3-.783A1.76,1.76,0,0,0,89,18.337a1.319,1.319,0,0,0-.5-.452,1.806,1.806,0,0,0-.677-.232A5.213,5.213,0,0,0,87,17.592a2.506,2.506,0,0,0-1.544.422,1.867,1.867,0,0,0-.654,1.392Zm7.666,2.453a1.46,1.46,0,0,1-.525.293,5.027,5.027,0,0,1-.677.175c-.243.049-.5.087-.76.118s-.532.068-.795.118a5.513,5.513,0,0,0-.738.186,2.183,2.183,0,0,0-.631.316,1.521,1.521,0,0,0-.433.5,1.646,1.646,0,0,0-.164.76,1.593,1.593,0,0,0,.163.76,1.285,1.285,0,0,0,.445.479,1.9,1.9,0,0,0,.654.243,3.966,3.966,0,0,0,.76.072,2.962,2.962,0,0,0,1.521-.327,2.209,2.209,0,0,0,.795-.783,2.567,2.567,0,0,0,.316-.924,6.524,6.524,0,0,0,.057-.76Z" transform="translate(-50.273 -9.52)"/><path class="b" d="M116.43,6.844V4.11h3.319V6.844Zm3.319,1.871V20.8H116.43V8.715Z" transform="translate(-72.159 -2.547)"/><path class="b" d="M133.875,15.686v1.639h.049a4.738,4.738,0,0,1,1.578-1.452,4.278,4.278,0,0,1,2.114-.513,4.852,4.852,0,0,1,2.091.445,2.936,2.936,0,0,1,1.437,1.567,5.232,5.232,0,0,1,1.475-1.388,3.9,3.9,0,0,1,2.186-.608,6.464,6.464,0,0,1,1.776.236,3.608,3.608,0,0,1,1.4.76,3.441,3.441,0,0,1,.909,1.346,5.4,5.4,0,0,1,.327,2V27.77H145.9V20.925a9.134,9.134,0,0,0-.046-1.141,2.491,2.491,0,0,0-.255-.935,1.593,1.593,0,0,0-.62-.631,2.243,2.243,0,0,0-1.11-.232,2.141,2.141,0,0,0-1.141.266,2,2,0,0,0-.677.7,2.791,2.791,0,0,0-.327.981,7.711,7.711,0,0,0-.08,1.11V27.77h-3.319V20.994c0-.357,0-.715-.027-1.065a2.954,2.954,0,0,0-.2-.97,1.521,1.521,0,0,0-.6-.7A2.2,2.2,0,0,0,136.3,18a2.555,2.555,0,0,0-.62.1,2.114,2.114,0,0,0-.76.4,2.338,2.338,0,0,0-.62.84,3.422,3.422,0,0,0-.255,1.437V27.77H130.73V15.686Z" transform="translate(-81.022 -9.518)"/><path class="b" d="M189.487,10.314v2.221h-2.43v5.985a1.623,1.623,0,0,0,.281,1.141,1.624,1.624,0,0,0,1.141.281q.278,0,.536-.023a3.9,3.9,0,0,0,.49-.072V22.4a7.958,7.958,0,0,1-.935.091q-.513.023-1,.023a9.924,9.924,0,0,1-1.46-.1,3.422,3.422,0,0,1-1.232-.392,2.16,2.16,0,0,1-.829-.863,3.118,3.118,0,0,1-.3-1.475V12.534H181.73V10.314h2V6.69h3.319v3.624Z" transform="translate(-112.63 -4.146)"/><path class="b" d="M207.376,24.871a3.422,3.422,0,0,0,3.882.224,2.091,2.091,0,0,0,.886-1.065h2.924a5.553,5.553,0,0,1-2.152,3.11,6.323,6.323,0,0,1-3.506.935,6.878,6.878,0,0,1-2.57-.456,5.4,5.4,0,0,1-1.943-1.3,5.825,5.825,0,0,1-1.224-2.011,7.354,7.354,0,0,1-.433-2.57,7.034,7.034,0,0,1,.445-2.525,5.825,5.825,0,0,1,1.262-2.023,5.886,5.886,0,0,1,1.951-1.346,6.266,6.266,0,0,1,2.513-.491,5.73,5.73,0,0,1,2.688.6,5.346,5.346,0,0,1,1.9,1.6,6.627,6.627,0,0,1,1.065,2.281,8.65,8.65,0,0,1,.232,2.692H206.57A3.322,3.322,0,0,0,207.376,24.871Zm3.757-6.358a2.335,2.335,0,0,0-1.814-.654,2.89,2.89,0,0,0-1.319.27,2.483,2.483,0,0,0-.84.665,2.369,2.369,0,0,0-.445.84,3.7,3.7,0,0,0-.152.795h5.4a3.859,3.859,0,0,0-.829-1.916Z" transform="translate(-125.96 -9.517)"/><path class="b" d="M243.706,17.86a2.342,2.342,0,0,0-1.331.361,2.955,2.955,0,0,0-.878.935,4.137,4.137,0,0,0-.479,1.262,7.032,7.032,0,0,0-.141,1.369,6.711,6.711,0,0,0,.141,1.331,4.183,4.183,0,0,0,.456,1.228,2.62,2.62,0,0,0,.856.9,2.357,2.357,0,0,0,1.308.35,2.434,2.434,0,0,0,1.833-.665,3.133,3.133,0,0,0,.806-1.791h3.205a5.5,5.5,0,0,1-1.871,3.673,6.046,6.046,0,0,1-3.951,1.262,6.612,6.612,0,0,1-2.491-.456,5.525,5.525,0,0,1-1.916-1.274,5.856,5.856,0,0,1-1.24-1.954,6.741,6.741,0,0,1-.445-2.487,8.034,8.034,0,0,1,.411-2.608,5.856,5.856,0,0,1,1.205-2.08,5.475,5.475,0,0,1,1.939-1.369,6.59,6.59,0,0,1,2.616-.491,7.6,7.6,0,0,1,2.068.281,5.548,5.548,0,0,1,1.78.852,4.627,4.627,0,0,1,1.274,1.426,4.563,4.563,0,0,1,.559,2.023h-3.247A2.243,2.243,0,0,0,243.706,17.86Z" transform="translate(-147.237 -9.518)"/><path class="a" d="M273.2,39.71h3.251v3.152H273.2Z" transform="translate(-169.32 -24.611)"/><path class="a" d="M295.4,19.73a2.513,2.513,0,0,0-.9-1.7,2.947,2.947,0,0,0-1.859-.574,3.825,3.825,0,0,0-1.1.179,2.578,2.578,0,0,0-1.072.654,3.669,3.669,0,0,0-.821,1.331,6.378,6.378,0,0,0-.327,2.232,6.715,6.715,0,0,0,.175,1.5,4.064,4.064,0,0,0,.563,1.331,3.042,3.042,0,0,0,.992.947,2.821,2.821,0,0,0,1.475.361,2.684,2.684,0,0,0,1.928-.722,3.373,3.373,0,0,0,.947-2.034h2.662a5.892,5.892,0,0,1-1.791,3.612A5.443,5.443,0,0,1,292.52,28.1a6.175,6.175,0,0,1-2.513-.479,5.293,5.293,0,0,1-1.837-1.312,5.5,5.5,0,0,1-1.141-1.973,7.683,7.683,0,0,1-.38-2.479,8.425,8.425,0,0,1,.38-2.548,5.821,5.821,0,0,1,1.141-2.068,5.266,5.266,0,0,1,1.859-1.38,6.266,6.266,0,0,1,2.6-.5,7.3,7.3,0,0,1,2,.27,5.259,5.259,0,0,1,1.654.806,4.258,4.258,0,0,1,1.205,1.354,4.692,4.692,0,0,1,.563,1.943Z" transform="translate(-177.655 -9.517)"/><path class="a" d="M321,4.11h2.662V20.8H321Z" transform="translate(-198.945 -2.547)"/><path class="a" d="M338.777,28.1a6.586,6.586,0,0,1-2.586-.479,5.472,5.472,0,0,1-1.9-1.323,5.59,5.59,0,0,1-1.19-2.008,8.191,8.191,0,0,1,0-5.122,5.589,5.589,0,0,1,1.19-2.008,5.472,5.472,0,0,1,1.9-1.323,7.224,7.224,0,0,1,5.167,0,5.472,5.472,0,0,1,1.9,1.323,5.651,5.651,0,0,1,1.194,2.008,7.745,7.745,0,0,1,.407,2.548,7.825,7.825,0,0,1-.407,2.574A5.65,5.65,0,0,1,343.26,26.3a5.472,5.472,0,0,1-1.9,1.323A6.582,6.582,0,0,1,338.777,28.1Zm0-2.106a3.042,3.042,0,0,0,1.54-.38,3.25,3.25,0,0,0,1.076-.981,4.312,4.312,0,0,0,.62-1.369,6.156,6.156,0,0,0,0-3.1,4.13,4.13,0,0,0-.62-1.369,3.258,3.258,0,0,0-1.076-.97,3.346,3.346,0,0,0-3.084,0,3.259,3.259,0,0,0-1.076.97,4.13,4.13,0,0,0-.62,1.369,6.156,6.156,0,0,0,0,3.1,4.311,4.311,0,0,0,.62,1.369,3.251,3.251,0,0,0,1.076.981A3.042,3.042,0,0,0,338.777,26Z" transform="translate(-206.189 -9.522)"/><path class="a" d="M379.647,28.3h-2.62V26.623h-.042a3.631,3.631,0,0,1-1.464,1.46,3.939,3.939,0,0,1-1.973.551,4.436,4.436,0,0,1-3.449-1.183,5.3,5.3,0,0,1-1.1-3.563V16.22h2.662v7.411a3.28,3.28,0,0,0,.608,2.243,2.213,2.213,0,0,0,1.707.654,3.377,3.377,0,0,0,1.4-.255,2.506,2.506,0,0,0,.913-.692,2.661,2.661,0,0,0,.5-1.038,5.509,5.509,0,0,0,.152-1.308V16.22h2.662Z" transform="translate(-228.693 -10.053)"/><path class="a" d="M413.258,20.8h-2.525V19.163h-.038a3.148,3.148,0,0,1-1.567,1.521,5.3,5.3,0,0,1-2.171.456,5.776,5.776,0,0,1-2.491-.5,4.973,4.973,0,0,1-1.757-1.361,5.9,5.9,0,0,1-1.053-2.046,8.928,8.928,0,0,1-.35-2.536,8.092,8.092,0,0,1,.445-2.829A5.658,5.658,0,0,1,402.93,9.9a4.563,4.563,0,0,1,1.684-1.141,5.4,5.4,0,0,1,1.928-.361,6.254,6.254,0,0,1,1.141.106,4.905,4.905,0,0,1,1.122.338,4.327,4.327,0,0,1,1,.6,3.236,3.236,0,0,1,.76.852h.049V4.11h2.662Zm-9.3-5.913a5.858,5.858,0,0,0,.2,1.521,4.137,4.137,0,0,0,.608,1.331,3.061,3.061,0,0,0,1.038.935,3.019,3.019,0,0,0,1.5.35,2.981,2.981,0,0,0,1.521-.38,3.164,3.164,0,0,0,1.049-.981,4.464,4.464,0,0,0,.608-1.369,6.082,6.082,0,0,0,.2-1.555,4.89,4.89,0,0,0-.9-3.129,2.966,2.966,0,0,0-2.445-1.141,3.008,3.008,0,0,0-1.578.38,3.194,3.194,0,0,0-1.049,1,4.183,4.183,0,0,0-.586,1.4A7.273,7.273,0,0,0,403.953,14.886Z" transform="translate(-248.715 -2.547)"/></g></svg>